<svg width="11" height="11" viewBox="0 0 11 11" fill="none" xmlns="http://www.w3.org/2000/svg">
<g clip-path="url(#clip0_1_107)">
<path d="M8.02082 0.878418C7.50472 0.886446 6.99987 1.03052 6.55726 1.29608C6.11465 1.56165 5.74995 1.93931 5.49999 2.39092C5.25003 1.93931 4.88534 1.56165 4.44272 1.29608C4.00011 1.03052 3.49526 0.886446 2.97916 0.878418C2.15642 0.914164 1.38127 1.27408 0.823058 1.87952C0.264843 2.48497 -0.0310613 3.28674 -8.94419e-06 4.10967C-8.94419e-06 6.19371 2.19357 8.46979 4.03332 10.013C4.44409 10.3582 4.96345 10.5474 5.49999 10.5474C6.03654 10.5474 6.55589 10.3582 6.96666 10.013C8.80641 8.46979 11 6.19371 11 4.10967C11.031 3.28674 10.7351 2.48497 10.1769 1.87952C9.61871 1.27408 8.84356 0.914164 8.02082 0.878418ZM6.3777 9.31175C6.13203 9.51863 5.82117 9.63208 5.49999 9.63208C5.17881 9.63208 4.86796 9.51863 4.62228 9.31175C2.26737 7.33588 0.916658 5.44021 0.916658 4.10967C0.885326 3.52975 1.08458 2.96096 1.47095 2.52736C1.85732 2.09377 2.39947 1.83054 2.97916 1.79508C3.55884 1.83054 4.10099 2.09377 4.48737 2.52736C4.87374 2.96096 5.07299 3.52975 5.04166 4.10967C5.04166 4.23123 5.08995 4.3478 5.1759 4.43376C5.26185 4.51971 5.37843 4.568 5.49999 4.568C5.62155 4.568 5.73813 4.51971 5.82408 4.43376C5.91004 4.3478 5.95832 4.23123 5.95832 4.10967C5.92699 3.52975 6.12624 2.96096 6.51262 2.52736C6.89899 2.09377 7.44114 1.83054 8.02082 1.79508C8.60051 1.83054 9.14266 2.09377 9.52903 2.52736C9.91541 2.96096 10.1147 3.52975 10.0833 4.10967C10.0833 5.44021 8.73262 7.33588 6.3777 9.30992V9.31175Z" fill="#374957"/>
</g>
<defs>
<clipPath id="clip0_1_107">
<rect width="11" height="11" fill="white"/>
</clipPath>
</defs>
</svg>
